HIERARCHY
ROOT root
{
	OFFSET 0.000000 0.000000 0.000000
	CHANNELS 6 Xposition Yposition Zposition Zrotation Yrotation Xrotation
	JOINT lhip
	{
		OFFSET 0.058581 -0.082280 -0.017664
		CHANNELS 3 Zrotation Yrotation Xrotation
		JOINT lknee
		{
			OFFSET 0.043451 -0.386469 0.008037
			CHANNELS 3 Zrotation Yrotation Xrotation
			JOINT lankle
			{
				OFFSET -0.014790 -0.426874 -0.037428
				CHANNELS 3 Zrotation Yrotation Xrotation
				JOINT ltoe
				{
					OFFSET 0.041054 -0.060286 0.122042
					CHANNELS 3 Zrotation Yrotation Xrotation
					End Site
					{
						OFFSET 0.000000 0.000000 0.000000
					}
				}
			}
		}
	}
	JOINT rhip
	{
		OFFSET -0.060310 -0.090513 -0.013543
		CHANNELS 3 Zrotation Yrotation Xrotation
		JOINT rknee
		{
			OFFSET -0.043257 -0.383688 -0.004843
			CHANNELS 3 Zrotation Yrotation Xrotation
			JOINT rankle
			{
				OFFSET 0.019056 -0.420046 -0.034562
				CHANNELS 3 Zrotation Yrotation Xrotation
				JOINT rtoe
				{
					OFFSET -0.034840 -0.062106 0.130323
					CHANNELS 3 Zrotation Yrotation Xrotation
					End Site
					{
						OFFSET 0.000000 0.000000 0.000000
					}
				}
			}
		}
	}
	JOINT lowerback
	{
		OFFSET 0.004439 0.124404 -0.038385
		CHANNELS 3 Zrotation Yrotation Xrotation
		JOINT upperback
		{
			OFFSET 0.004488 0.137956 0.026820
			CHANNELS 3 Zrotation Yrotation Xrotation
			JOINT chest
			{
				OFFSET -0.002265 0.056032 0.002855
				CHANNELS 3 Zrotation Yrotation Xrotation
				JOINT lowerneck
				{
					OFFSET -0.013390 0.211636 -0.033468
					CHANNELS 3 Zrotation Yrotation Xrotation
					JOINT upperneck
					{
						OFFSET 0.010113 0.088937 0.050410
						CHANNELS 3 Zrotation Yrotation Xrotation
						End Site
						{
							OFFSET 0.000000 0.000000 0.000000
						}
					}
				}
				JOINT lclavicle
				{
					OFFSET 0.071702 0.114000 -0.018898
					CHANNELS 3 Zrotation Yrotation Xrotation
					JOINT lshoulder
					{
						OFFSET 0.122921 0.045205 -0.019046
						CHANNELS 3 Zrotation Yrotation Xrotation
						JOINT lelbow
						{
							OFFSET 0.255332 -0.015649 -0.022946
							CHANNELS 3 Zrotation Yrotation Xrotation
							JOINT lwrist
							{
								OFFSET 0.265709 0.012698 -0.007375
								CHANNELS 3 Zrotation Yrotation Xrotation
								End Site
								{
									OFFSET 0.000000 0.000000 0.000000
								}
							}
						}
					}
				}
				JOINT rclavicle
				{
					OFFSET -0.082954 0.112472 -0.023707
					CHANNELS 3 Zrotation Yrotation Xrotation
					JOINT rshoulder
					{
						OFFSET -0.113228 0.046853 -0.008472
						CHANNELS 3 Zrotation Yrotation Xrotation
						JOINT relbow
						{
							OFFSET -0.260127 -0.014369 -0.031269
							CHANNELS 3 Zrotation Yrotation Xrotation
							JOINT rwrist
							{
								OFFSET -0.269108 0.006794 -0.006027
								CHANNELS 3 Zrotation Yrotation Xrotation
								End Site
								{
									OFFSET 0.000000 0.000000 0.000000
								}
							}
						}
					}
				}
			}
		}
	}
}
MOTION
Frames: 8
Frame Time: 0.033333
0.032907 -1.077580 0.975235 -170.113853 -1.864161 91.400241 6.747416 -1.766620 -23.903936 -8.158038 -8.302961 20.997481 1.047363 9.162889 -21.792473 0.000000 -0.000000 0.000000 -3.453692 -6.273573 2.780473 7.052242 0.268690 10.962937 2.286433 -8.215587 -21.140593 0.000000 -0.000000 0.000000 -2.017824 7.292212 7.928683 0.424850 -3.755576 2.352634 -0.211802 3.682419 -8.317713 -6.890699 -8.841479 4.458283 3.990188 2.389035 9.459569 -25.920015 -3.268146 3.230837 -46.590676 -7.432053 1.815071 28.144964 -25.178280 -25.818710 10.262831 -0.213847 -10.076066 21.569137 15.923952 1.799676 11.403236 35.088304 -24.465380 -41.183932 55.400042 -42.343457 -25.478319 10.283386 7.360682 
0.035165 -1.078020 0.973992 -169.124256 -1.899628 91.321964 6.883144 -1.785213 -24.251150 -8.546735 -8.643157 21.175965 0.838710 8.930814 -22.233636 0.000000 -0.000000 0.000000 -3.064931 -6.377396 3.057264 6.929828 -0.068434 10.636052 2.188736 -8.721522 -21.232890 0.000000 -0.000000 0.000000 -2.643375 7.371316 7.708622 0.700788 -3.734710 2.437423 -0.089734 3.563174 -8.514444 -6.291980 -8.638343 4.067855 3.623457 1.505465 10.407088 -25.470503 -2.769069 3.133414 -47.428394 -8.133051 2.179578 28.456797 -25.438498 -25.325954 9.119312 0.009636 -10.009360 21.988271 16.143621 1.403023 13.897397 36.534513 -22.662995 -42.241802 54.546626 -43.623838 -24.768876 8.477787 4.381401 
0.035333 -1.080675 0.973144 -168.357184 -1.892130 91.410136 6.709963 -2.167869 -24.814692 -8.348280 -8.681468 21.351293 0.809729 8.752205 -22.041313 0.000000 -0.000000 0.000000 -2.840656 -5.947642 2.975125 6.980052 -0.807418 10.182226 1.941399 -9.459963 -21.759201 0.000000 -0.000000 0.000000 -2.382925 7.531240 7.862798 0.589920 -3.648034 1.987705 -0.232403 3.570334 -8.640449 -6.262698 -8.896636 4.327159 3.733056 0.697082 10.551353 -25.508508 -2.399250 3.139620 -47.946997 -8.775869 2.622296 28.759436 -25.383137 -24.934328 7.608840 0.065205 -9.957890 22.142181 16.195939 1.212236 16.329131 37.827142 -21.621244 -43.724222 53.626438 -46.493568 -23.644561 7.043177 1.290116 
0.036396 -1.081705 0.972149 -167.460350 -1.956224 91.279863 6.574892 -2.506671 -25.001859 -8.328991 -8.866653 21.418757 0.701587 8.431299 -22.282390 0.000000 -0.000000 0.000000 -2.734437 -6.185460 3.429341 6.962471 -1.458018 9.482317 1.815497 -9.610095 -22.210541 0.000000 -0.000000 0.000000 -2.624609 7.644905 7.840298 0.669853 -3.646425 1.871898 -0.257815 3.625894 -8.674113 -6.059022 -8.982408 4.177449 3.663087 -0.110296 10.977827 -25.147484 -1.590027 3.242032 -48.532594 -9.805961 2.831002 28.407040 -25.458040 -24.697575 7.539989 -0.149215 -8.941218 22.821011 16.028750 1.515586 17.739073 39.083533 -21.466359 -44.879804 52.566068 -48.284107 -22.973526 7.117923 1.865333 
0.037393 -1.082119 0.971682 -166.477660 -1.913203 91.039469 6.663959 -2.821162 -24.940374 -8.558863 -9.142974 21.232320 0.497438 8.205409 -22.421016 0.000000 -0.000000 0.000000 -2.524586 -6.522329 4.026937 6.885075 -1.545994 9.164901 1.933977 -9.474987 -21.854595 0.000000 -0.000000 0.000000 -2.794747 7.759911 7.881532 0.808766 -3.725618 1.762024 -0.205342 3.651309 -8.707587 -5.986867 -9.330022 4.546829 3.712267 -0.703698 10.850182 -25.260082 -1.276595 3.665085 -48.756954 -10.305544 2.459421 28.676504 -25.491320 -24.671605 6.890089 -0.556598 -7.764557 23.630804 15.825430 2.120873 17.809976 39.163778 -21.808655 -45.870239 51.985829 -45.521097 -21.743467 7.742402 6.754154 
0.038299 -1.083080 0.970880 -165.504621 -1.956699 91.054444 6.707688 -3.180027 -25.395811 -8.821800 -9.215429 21.400035 0.309705 7.986038 -22.400056 0.000000 -0.000000 0.000000 -2.375001 -6.684288 4.239940 6.930514 -2.022571 8.657874 1.934538 -9.840965 -22.041162 0.000000 -0.000000 0.000000 -2.989394 7.995893 7.632510 0.799759 -3.745281 1.508928 -0.164524 3.597752 -8.434325 -5.889596 -9.686132 4.815787 3.859595 -1.313626 10.906629 -24.797393 -1.265386 4.125279 -49.388507 -10.205495 2.192685 29.613033 -25.730242 -24.385780 2.030672 -0.195503 -7.356017 24.107642 15.633035 2.479089 17.637358 38.284459 -21.994812 -47.558847 51.808489 -41.797464 -17.855565 7.460657 14.024317 
0.039134 -1.083789 0.970694 -164.562981 -1.779928 90.811178 6.873629 -3.545491 -25.525135 -8.877649 -9.414401 21.598859 0.119594 7.688174 -22.328513 0.000000 -0.000000 0.000000 -1.939579 -6.730298 4.642156 6.775658 -2.089604 8.604095 1.992069 -9.970524 -21.565339 0.000000 -0.000000 0.000000 -2.798521 8.006031 7.764616 0.780624 -3.828359 1.335646 -0.189077 3.571965 -8.285689 -5.847161 -10.025979 5.075115 3.819384 -1.699139 10.692500 -24.675389 -1.007834 4.191501 -49.541629 -9.866340 1.768235 30.223738 -25.956471 -24.355952 -1.602168 0.344724 -6.009142 24.206497 15.252340 2.670624 17.080007 37.296902 -22.280701 -48.138021 52.384929 -39.472867 -13.283887 6.672991 18.554833 
0.039927 -1.084593 0.970250 -163.735232 -1.703733 90.677017 6.989986 -3.829825 -25.799301 -9.069654 -9.528055 21.849854 0.097591 7.614735 -22.601131 0.000000 -0.000000 0.000000 -1.751458 -7.011041 4.769980 6.801617 -2.159977 8.927578 2.022347 -9.984094 -21.146115 0.000000 -0.000000 0.000000 -2.690142 8.053541 7.846340 0.704166 -3.854412 1.039933 -0.169870 3.492935 -8.020265 -5.799665 -10.454861 5.288158 3.742327 -1.896267 10.551229 -24.511100 -0.879692 4.221618 -49.628909 -9.375234 1.273238 30.802265 -26.022303 -24.500029 -4.618796 0.875390 -4.887717 23.918664 14.924615 2.512078 16.671006 36.078662 -22.321602 -49.067866 53.649020 -38.304298 -8.799338 5.166061 20.870355 
